<svg xmlns="http://www.w3.org/2000/svg" viewBox="0 0 180 200" role="img" aria-label="Savitri Foundation">
  <defs>
    <linearGradient id="brand" x1="12%" y1="8%" x2="88%" y2="92%">
      <stop offset="0" stop-color="#f2b705"/><stop offset=".56" stop-color="#ff8a00"/><stop offset="1" stop-color="#e63946"/>
    </linearGradient>
    <linearGradient id="flame" x1="50%" y1="0" x2="50%" y2="100%">
      <stop offset="0" stop-color="#fff3dc"/><stop offset=".38" stop-color="#f2b705"/><stop offset="1" stop-color="#ff8a00"/>
    </linearGradient>
  </defs>
  <g fill="none" stroke="url(#brand)" stroke-width="7" stroke-linecap="round">
    <path d="M42 65C22 84 17 119 31 148"/><path d="M138 65C158 84 163 119 149 148"/><path d="M45 170C69 188 111 188 135 170"/>
  </g>
  <circle cx="31" cy="58" r="7" fill="url(#brand)"/><circle cx="149" cy="154" r="7" fill="url(#brand)"/><circle cx="90" cy="184" r="8" fill="url(#brand)"/>
  <path d="M90 5C77 24 70 38 75 52C78 61 84 68 91 73C87 57 90 43 98 31C110 43 111 56 106 69C120 61 126 48 122 35C118 21 104 10 90 5Z" fill="url(#flame)"/>
  <path d="M97 38C91 47 88 55 91 63C93 68 96 72 99 75C105 66 108 58 105 51C103 45 100 41 97 38Z" fill="#e63946"/>
  <text x="90" y="139" fill="url(#brand)" text-anchor="middle" font-family="'Baloo Tamma 2','Nirmala UI',sans-serif" font-size="96" font-weight="700">ಸ</text>
  <g fill="url(#brand)"><path d="M53 159C62 151 72 151 80 159C72 167 62 167 53 159Z"/><path d="M100 159C108 151 118 151 127 159C118 167 108 167 100 159Z"/><path d="M81 168C87 158 93 158 99 168C93 177 87 177 81 168Z"/></g>
</svg>
